<svg xmlns="http://www.w3.org/2000/svg" xmlns:xlink="http://www.w3.org/1999/xlink" version="1.0" x="0" y="0" width="2400" height="666.7880095097837" viewBox="75.4102993774414 98.72029693603515 189.1794012451172 52.55939849853516" preserveAspectRatio="xMidYMid meet" color-interpolation-filters="sRGB"><g><defs><linearGradient id="92" x1="0%" y1="0%" x2="100%" y2="0%"><stop offset="0%" stop-color="#fa71cd"></stop> <stop offset="100%" stop-color="#9b59b6"></stop></linearGradient><linearGradient id="93" x1="0%" y1="0%" x2="100%" y2="0%"><stop offset="0%" stop-color="#f9d423"></stop> <stop offset="100%" stop-color="#f83600"></stop></linearGradient><linearGradient id="94" x1="0%" y1="0%" x2="100%" y2="0%"><stop offset="0%" stop-color="#0064d2"></stop> <stop offset="100%" stop-color="#1cb0f6"></stop></linearGradient><linearGradient id="95" x1="0%" y1="0%" x2="100%" y2="0%"><stop offset="0%" stop-color="#f00978"></stop> <stop offset="100%" stop-color="#3f51b1"></stop></linearGradient><linearGradient id="96" x1="0%" y1="0%" x2="100%" y2="0%"><stop offset="0%" stop-color="#7873f5"></stop> <stop offset="100%" stop-color="#ec77ab"></stop></linearGradient><linearGradient id="97" x1="0%" y1="0%" x2="100%" y2="0%"><stop offset="0%" stop-color="#f9d423"></stop> <stop offset="100%" stop-color="#e14fad"></stop></linearGradient><linearGradient id="98" x1="0%" y1="0%" x2="100%" y2="0%"><stop offset="0%" stop-color="#009efd"></stop> <stop offset="100%" stop-color="#2af598"></stop></linearGradient><linearGradient id="99" x1="0%" y1="0%" x2="100%" y2="0%"><stop offset="0%" stop-color="#ffcc00"></stop> <stop offset="100%" stop-color="#00b140"></stop></linearGradient><linearGradient id="100" x1="0%" y1="0%" x2="100%" y2="0%"><stop offset="0%" stop-color="#d51007"></stop> <stop offset="100%" stop-color="#ff8177"></stop></linearGradient><linearGradient id="102" x1="0%" y1="0%" x2="100%" y2="0%"><stop offset="0%" stop-color="#a2b6df"></stop> <stop offset="100%" stop-color="#0c3483"></stop></linearGradient><linearGradient id="103" x1="0%" y1="0%" x2="100%" y2="0%"><stop offset="0%" stop-color="#7ac5d8"></stop> <stop offset="100%" stop-color="#eea2a2"></stop></linearGradient><linearGradient id="104" x1="0%" y1="0%" x2="100%" y2="0%"><stop offset="0%" stop-color="#00ecbc"></stop> <stop offset="100%" stop-color="#007adf"></stop></linearGradient><linearGradient id="105" x1="0%" y1="0%" x2="100%" y2="0%"><stop offset="0%" stop-color="#b88746"></stop> <stop offset="100%" stop-color="#fdf5a6"></stop></linearGradient></defs><g fill="#234975" class="newinitialsvg-g newinitialsvg" transform="translate(77.26499938964844,100.57500076293945)"><g class="tp-name"><g transform="translate(0, 0)"><g fill="#234975" transform="translate(0,6)"><g transform="scale(1)"><path d="M17.60-21.95L17.60-18.37L12.71-18.37L12.71-21.23Q12.71-22.22 12.38-22.52Q12.04-22.82 11.05-22.82L11.05-22.82L8.69-22.82Q7.70-22.82 7.37-22.52Q7.04-22.22 7.04-21.23L7.04-21.23L7.04-5.61Q7.04-4.62 7.37-4.32Q7.70-4.01 8.69-4.01L8.69-4.01L11.05-4.01Q12.04-4.01 12.38-4.32Q12.71-4.62 12.71-5.61L12.71-5.61L12.71-8.47L17.60-8.47L17.60-4.84Q17.60 0 12.43 0L12.43 0L7.21 0Q2.09 0 2.09-4.84L2.09-4.84L2.09-21.95Q2.09-26.84 7.21-26.84L7.21-26.84L12.43-26.84Q17.60-26.84 17.60-21.95L17.60-21.95Z" transform="translate(-2.09, 36.85)"></path></g></g></g><g transform="translate(19.51, 0)"><g fill="#234975" transform="translate(0,6)"><g transform="scale(1)"><path d="M12.43-24.70L12.43-26.84L17.38-26.84L17.38 0L12.43 0L12.43-2.15Q11.71 0 9.02 0L9.02 0L7.04 0Q2.09 0 2.09-4.84L2.09-4.84L2.09-21.95Q2.09-26.84 7.04-26.84L7.04-26.84L9.02-26.84Q11.71-26.84 12.43-24.70L12.43-24.70ZM8.69-4.01L8.69-4.01L10.62-4.01Q11.61-4.01 12.02-4.46Q12.43-4.90 12.43-5.94L12.43-5.94L12.43-20.90Q12.43-21.95 12.02-22.39Q11.61-22.82 10.62-22.82L10.62-22.82L8.69-22.82Q7.70-22.82 7.37-22.52Q7.04-22.22 7.04-21.23L7.04-21.23L7.04-5.61Q7.04-4.62 7.37-4.32Q7.70-4.01 8.69-4.01Z" transform="translate(-2.09, 36.85)"></path></g></g></g><g transform="translate(38.8, 0)"><g fill="#234975" transform="translate(0,6)"><g transform="scale(1)"><path d="M10.78-26.84L10.78-26.84L12.71-26.84Q17.71-26.84 17.71-21.95L17.71-21.95L17.71 0L12.76 0L12.76-21.23Q12.76-22.22 12.43-22.52Q12.10-22.82 11.11-22.82L11.11-22.82L9.19-22.82Q8.20-22.82 7.78-22.39Q7.37-21.95 7.37-20.90L7.37-20.90L7.37 0L2.42 0L2.42-26.84L7.37-26.84L7.37-24.70Q8.09-26.84 10.78-26.84Z" transform="translate(-2.42, 36.85)"></path></g></g></g><g class="tp-graph" transform="translate(58.09, 0)" mask="url(#cbd70252-86ee-425d-b904-0ce2a1f3ef72)"><rect fill="#234975" x="0" y="0" width="48.85" height="48.85" rx="24.425"></rect> <g transform="translate(21.839999961853028,6)"><g transform="scale(1)" fill="#234975"><path d="M7.48-31.96L2.31-31.96L2.31-36.85L7.48-36.85L7.48-31.96ZM7.37-26.84L7.37 0L2.42 0L2.42-26.84L7.37-26.84Z" transform="translate(-2.31, 36.85)"></path></g></g></g><g transform="translate(110.94, 0)"><g fill="#234975" transform="translate(0,6)"><g transform="scale(1)"><path d="M17.60-21.95L17.60-18.37L12.71-18.37L12.71-21.23Q12.71-22.22 12.38-22.52Q12.04-22.82 11.05-22.82L11.05-22.82L8.69-22.82Q7.70-22.82 7.37-22.52Q7.04-22.22 7.04-21.23L7.04-21.23L7.04-5.61Q7.04-4.62 7.37-4.32Q7.70-4.01 8.69-4.01L8.69-4.01L11.05-4.01Q12.04-4.01 12.38-4.32Q12.71-4.62 12.71-5.61L12.71-5.61L12.71-8.47L17.60-8.47L17.60-4.84Q17.60 0 12.43 0L12.43 0L7.21 0Q2.09 0 2.09-4.84L2.09-4.84L2.09-21.95Q2.09-26.84 7.21-26.84L7.21-26.84L12.43-26.84Q17.60-26.84 17.60-21.95L17.60-21.95Z" transform="translate(-2.09, 36.85)"></path></g></g></g><g transform="translate(130.45, 0)"><g fill="#234975" transform="translate(0,6)"><g transform="scale(1)"><path d="M7.21-26.84L7.21-26.84L13.09-26.84Q18.21-26.84 18.21-21.95L18.21-21.95L18.21-4.84Q18.21 0 13.09 0L13.09 0L7.21 0Q2.15 0 2.15-4.84L2.15-4.84L2.15-21.95Q2.15-26.84 7.21-26.84ZM13.31-5.55L13.31-5.55L13.31-21.29Q13.31-22.27 12.98-22.61Q12.65-22.93 11.66-22.93L11.66-22.93L8.63-22.93Q7.65-22.93 7.34-22.61Q7.04-22.27 7.04-21.29L7.04-21.29L7.04-5.55Q7.04-4.57 7.34-4.24Q7.65-3.90 8.63-3.90L8.63-3.90L11.66-3.90Q12.65-3.90 12.98-4.24Q13.31-4.57 13.31-5.55Z" transform="translate(-2.145, 36.85)"></path></g></g></g><g transform="translate(150.51, 0)"><g fill="#234975" transform="translate(0,6)"><g transform="scale(1)"><path d="M12.43-24.75L12.43-36.80L17.38-36.80L17.38 0L12.43 0L12.43-2.15Q11.71 0 9.02 0L9.02 0L7.04 0Q2.09 0 2.09-4.84L2.09-4.84L2.09-22Q2.09-26.89 7.04-26.89L7.04-26.89L9.02-26.89Q11.71-26.89 12.43-24.75L12.43-24.75ZM8.69-4.01L8.69-4.01L10.62-4.01Q11.61-4.01 12.02-4.46Q12.43-4.90 12.43-5.94L12.43-5.94L12.43-20.96Q12.43-22 12.02-22.44Q11.61-22.88 10.62-22.88L10.62-22.88L8.69-22.88Q7.70-22.88 7.37-22.55Q7.04-22.22 7.04-21.29L7.04-21.29L7.04-5.61Q7.04-4.62 7.37-4.32Q7.70-4.01 8.69-4.01Z" transform="translate(-2.09, 36.85)"></path></g></g></g><g transform="translate(169.8, 0)"><g fill="#234975" transform="translate(0,6)"><g transform="scale(1)"><path d="M7.42-26.84L7.42-26.84L12.81-26.84Q17.98-26.84 17.98-21.95L17.98-21.95L17.98-11.88L7.15-11.88L7.15-5.50Q7.15-4.57 7.48-4.24Q7.81-3.90 8.80-3.90L8.80-3.90L11.33-3.90Q12.32-3.90 12.65-4.24Q12.98-4.57 12.98-5.55L12.98-5.55L12.98-7.75L17.82-7.75L17.82-4.84Q17.82 0 12.71 0L12.71 0L7.42 0Q2.31 0 2.31-4.84L2.31-4.84L2.31-21.95Q2.31-26.84 7.42-26.84ZM7.15-21.34L7.15-15.51L13.09-15.51L13.09-21.34Q13.09-22.27 12.79-22.61Q12.48-22.93 11.49-22.93L11.49-22.93L8.80-22.93Q7.81-22.93 7.48-22.61Q7.15-22.27 7.15-21.34L7.15-21.34Z" transform="translate(-2.31, 36.85)"></path></g></g></g></g> </g><mask id="cbd70252-86ee-425d-b904-0ce2a1f3ef72"><rect x="0" y="0" width="48.85" height="48.85" rx="24.425" fill="white"></rect> <g transform="translate(21.839999961853028,6)" fill="black"><g transform="scale(1)"><path d="M7.48-31.96L2.31-31.96L2.31-36.85L7.48-36.85L7.48-31.96ZM7.37-26.84L7.37 0L2.42 0L2.42-26.84L7.37-26.84Z" transform="translate(-2.31, 36.85)"></path></g></g></mask><defs v-gra="od"></defs></g></svg>